<?xml version="1.0" standalone="no"?>
<!DOCTYPE svg PUBLIC "-//W3C//DTD SVG 20010904//EN"
 "http://www.w3.org/TR/2001/REC-SVG-20010904/DTD/svg10.dtd">
<svg version="1.0" xmlns="http://www.w3.org/2000/svg"
 width="239.000000pt" height="240.000000pt" viewBox="0 0 239.000000 240.000000"
 preserveAspectRatio="xMidYMid meet">
<metadata>
Created by potrace 1.10, written by Peter Selinger 2001-2011
</metadata>
<g transform="translate(0.000000,240.000000) scale(0.100000,-0.100000)"
fill="#800080" stroke="none">
<path d="M1065 1755 c-16 -8 -25 -14 -20 -15 6 0 2 -5 -7 -11 -17 -9 -18 -38
-18 -373 0 -340 1 -364 19 -384 10 -12 25 -22 33 -22 18 0 94 76 91 90 -3 11
28 0 42 -14 6 -6 16 -23 24 -38 8 -16 19 -24 28 -21 7 3 13 2 12 -3 -4 -23 2
-36 15 -31 10 4 13 1 10 -7 -3 -7 6 -27 20 -44 54 -63 22 -84 -126 -84 -86 0
-103 3 -155 28 -32 16 -62 29 -68 30 -21 2 -45 16 -40 24 3 5 -9 20 -26 34
-17 15 -32 33 -33 42 -1 9 -9 20 -17 24 -8 5 -14 13 -14 17 -1 4 -9 22 -18 40
-9 18 -17 40 -17 50 0 14 -2 15 -9 4 -13 -20 -5 177 9 232 7 26 17 47 22 47 5
0 8 6 7 13 -3 17 12 50 29 63 9 7 12 16 7 24 -6 9 -4 11 4 5 15 -9 83 53 74
68 -3 6 -1 7 5 3 17 -10 42 35 42 75 0 21 -8 47 -18 59 -16 19 -24 22 -55 16
-27 -5 -35 -11 -30 -22 3 -8 2 -14 -3 -13 -31 5 -53 -2 -48 -16 4 -10 2 -13
-8 -10 -9 4 -20 -4 -28 -20 -7 -14 -16 -23 -18 -20 -8 8 -42 -26 -42 -42 0 -7
-5 -13 -10 -13 -6 0 -9 -3 -8 -7 1 -5 -14 -32 -33 -62 -19 -30 -32 -63 -31
-74 2 -12 -1 -17 -7 -13 -15 10 -14 -7 2 -23 8 -9 8 -12 0 -7 -15 8 -33 -75
-33 -154 0 -79 18 -162 33 -153 7 4 6 -1 -2 -10 -10 -12 -10 -17 -1 -17 6 0
10 -6 7 -12 -7 -20 56 -129 71 -123 7 3 10 0 7 -5 -9 -14 23 -70 41 -70 8 0
12 -5 9 -10 -3 -5 -1 -10 5 -10 7 0 25 -13 40 -30 15 -16 35 -30 44 -30 9 0
16 -3 16 -7 0 -13 61 -43 73 -36 7 3 9 3 5 -2 -8 -9 61 -49 70 -41 3 3 -1 6
-8 6 -7 0 -10 3 -7 6 4 4 14 1 23 -7 31 -26 295 -25 279 1 -4 6 4 6 20 0 19
-7 24 -7 19 2 -5 8 0 9 14 6 12 -4 20 -2 16 3 -3 5 4 9 15 9 10 0 21 3 23 8 2
4 20 15 41 25 24 10 35 22 31 29 -4 6 -3 8 2 5 14 -8 26 3 46 39 11 19 14 34
8 40 -5 5 -6 22 -2 39 7 23 10 26 15 12 8 -22 46 -22 74 1 34 28 84 117 76
137 -4 13 -3 16 5 11 7 -4 12 -3 12 3 0 5 3 18 6 28 5 15 4 16 -6 3 -10 -13
-11 -12 -6 3 3 10 6 26 6 35 0 15 2 15 10 2 7 -10 10 28 9 115 0 82 -4 123 -9
110 -7 -16 -9 -17 -9 -3 -1 9 -4 25 -7 35 -5 15 -4 16 5 3 9 -12 10 -9 5 15
-10 52 -16 67 -21 61 -3 -3 -23 29 -44 72 -21 42 -39 68 -39 57 0 -15 -7 -9
-28 22 -15 23 -37 45 -49 48 -13 3 -23 10 -23 16 0 6 5 7 12 3 6 -4 8 -3 4 4
-3 6 -20 13 -36 17 -17 4 -28 10 -25 15 3 5 -11 14 -30 21 -19 7 -35 17 -35
21 0 4 -9 8 -21 8 -11 0 -18 4 -15 9 4 5 -4 7 -16 3 -12 -3 -19 -1 -15 4 7 12
1 13 -148 19 -92 3 -127 1 -150 -10z m318 -60 c304 -123 424 -464 269 -757
-20 -38 -39 -68 -43 -68 -4 0 -17 14 -30 31 l-21 30 27 51 c95 175 65 394 -74
533 -84 85 -198 135 -308 135 l-63 0 0 -225 c0 -124 3 -225 7 -225 3 0 40 36
80 80 l75 80 66 0 67 0 -90 -88 -90 -89 112 -154 c62 -85 127 -171 144 -193
l32 -38 -24 -19 c-13 -11 -51 -33 -84 -49 -290 -146 -632 -13 -742 287 -81
221 -6 468 187 613 l65 49 3 -52 c2 -36 -1 -53 -10 -55 -7 -3 -39 -32 -72 -65
-118 -123 -156 -287 -102 -447 63 -185 212 -297 411 -307 80 -4 99 -2 165 22
41 15 77 29 79 31 2 1 -12 22 -32 46 -19 24 -71 94 -115 156 l-81 112 -63 -71
c-35 -39 -62 -76 -60 -82 2 -7 1 -9 -3 -5 -4 4 -7 175 -6 380 l1 373 28 7 c15
4 72 5 127 4 82 -3 113 -8 168 -31z m-55 -110 c17 -8 32 -12 32 -9 0 3 16 -7
35 -22 19 -14 41 -24 49 -21 10 4 12 0 8 -15 -4 -17 -2 -20 11 -15 8 3 21 -1
27 -9 7 -8 9 -14 4 -14 -5 0 3 -10 17 -23 14 -12 24 -28 21 -36 -3 -8 0 -11 7
-7 7 5 11 -1 11 -14 0 -12 4 -18 11 -15 6 4 9 1 8 -6 -2 -13 14 -81 29 -119 9
-23 11 -114 3 -125 -4 -5 -13 -30 -20 -55 -7 -25 -22 -62 -32 -84 -13 -27 -17
-54 -14 -90 3 -37 1 -45 -5 -28 -5 12 -7 29 -4 37 4 8 1 15 -4 15 -6 0 -12 -6
-15 -12 -2 -7 -3 -5 -2 5 2 9 -3 17 -10 17 -7 0 -23 16 -35 35 -12 19 -27 32
-32 29 -7 -4 -8 -2 -4 4 9 15 -64 103 -78 95 -6 -3 -6 0 1 7 9 10 7 17 -13 32
-13 11 -24 27 -24 36 0 15 2 15 11 2 9 -12 10 -11 6 6 -3 15 0 21 12 20 10 -1
15 6 15 17 -1 10 0 16 3 13 7 -6 49 46 46 56 -2 4 5 4 14 1 13 -5 15 -2 10 11
-4 9 -3 15 2 12 12 -8 23 23 16 44 -18 55 -164 49 -208 -9 -7 -9 -20 -22 -29
-29 -16 -13 -17 -3 -20 138 l-3 152 55 -7 c30 -4 70 -13 88 -20z"/>
</g>
</svg>
